<?xml version="1.0" encoding="utf-8"?>
<!-- Generator: Adobe Illustrator 24.0.0, SVG Export Plug-In . SVG Version: 6.00 Build 0)  -->
<svg version="1.1" id="Ebene_1" xmlns="http://www.w3.org/2000/svg" xmlns:xlink="http://www.w3.org/1999/xlink" x="0px" y="0px"
	viewBox="0 0 84.67 85.04" style="enable-background:new 0 0 84.67 85.04;" xml:space="preserve">
<style type="text/css">
	.st0{fill:#42d75f;}
</style>
	<g>
	<path class="st0" d="M16.55,0.84C8.79,3.04,2.72,9.41,0.71,17.47c-2.15,8.63,0.61,17.65,7.53,25.04
		c-6.94,7.39-9.68,16.43-7.53,25.06C2.72,75.63,8.79,82,16.55,84.2c5,1.42,14.82,2.2,25.78-7.66c10.94,9.87,20.78,9.08,25.79,7.66
		c7.76-2.2,13.83-8.57,15.84-16.63c2.15-8.63-0.61-17.65-7.53-25.04c6.94-7.39,9.68-16.43,7.53-25.06
		c-1.05-4.22-3.21-7.98-6.15-10.92c-2.67-2.67-5.99-4.67-9.68-5.71c-5-1.42-14.82-2.2-25.78,7.66C31.4-1.37,21.56-0.58,16.55,0.84z
		 M21.12,45.54c-1.41-0.44-2.85-1.11-4.27-1.97c-0.54-0.33-1.05-0.68-1.56-1.05c0.51-0.37,1.03-0.73,1.56-1.05
		c1.4-0.85,2.87-1.53,4.3-1.98c0.56-0.19,1.15-0.21,1.73-0.08c1,0.23,1.87,0.96,2.25,1.91c0.15,0.38,0.23,0.79,0.23,1.2
		c0,0.42-0.08,0.82-0.23,1.2c-0.16,0.4-0.4,0.75-0.7,1.06c-0.43,0.43-0.96,0.72-1.55,0.86C22.31,45.77,21.72,45.74,21.12,45.54z
		 M63.54,39.5c1.39,0.44,2.87,1.12,4.27,1.97c0.54,0.33,1.05,0.68,1.56,1.05c-0.51,0.37-1.03,0.73-1.56,1.05
		c-1.4,0.85-2.87,1.53-4.3,1.98c-0.56,0.19-1.15,0.21-1.73,0.08c-1-0.23-1.87-0.97-2.25-1.91c-0.15-0.38-0.23-0.79-0.23-1.2
		c0-0.42,0.08-0.82,0.23-1.2c0.16-0.4,0.4-0.75,0.7-1.06c0.43-0.43,0.96-0.72,1.55-0.86C62.35,39.27,62.95,39.3,63.54,39.5z
		 M66.83,5.39c6.14,1.74,10.94,6.81,12.54,13.23c1.75,7.03-0.58,14.48-6.41,20.69c-0.85-0.67-1.75-1.3-2.69-1.87
		C68.52,36.37,66.74,35.55,65,35c-1.37-0.46-2.85-0.53-4.26-0.21c-1.46,0.33-2.79,1.07-3.85,2.12c-0.76,0.76-1.34,1.64-1.74,2.62
		c-0.39,0.95-0.58,1.95-0.58,2.98c0,1.03,0.2,2.03,0.58,2.98c0.96,2.36,3.09,4.19,5.59,4.75c1.41,0.32,2.89,0.25,4.23-0.2
		c1.78-0.56,3.56-1.38,5.3-2.44c0.94-0.57,1.84-1.2,2.69-1.87c5.83,6.22,8.16,13.66,6.41,20.69c-1.6,6.42-6.4,11.49-12.54,13.23
		c-6.88,1.95-14.38-0.39-21.25-6.55c0.66-0.84,1.28-1.73,1.84-2.65c1.06-1.75,1.88-3.53,2.43-5.27c0.46-1.37,0.53-2.85,0.21-4.26
		c-0.33-1.46-1.07-2.79-2.12-3.85c-0.75-0.75-1.64-1.34-2.62-1.74c-0.95-0.39-1.95-0.58-2.98-0.58c-1.03,0-2.03,0.2-2.98,0.58
		c-0.98,0.4-1.87,0.98-2.62,1.74c-1.06,1.06-1.8,2.39-2.12,3.85c-0.32,1.42-0.25,2.89,0.2,4.22c0.56,1.78,1.38,3.56,2.44,5.31
		c0.56,0.92,1.18,1.8,1.84,2.65c-6.89,6.17-14.38,8.49-21.25,6.55C11.7,77.92,6.9,72.85,5.3,66.43c-1.75-7.03,0.58-14.48,6.41-20.69
		c0.85,0.67,1.75,1.3,2.69,1.87c1.75,1.06,3.53,1.88,5.27,2.43c1.37,0.46,2.85,0.53,4.26,0.21c1.46-0.33,2.79-1.07,3.85-2.12
		c0.75-0.75,1.34-1.64,1.74-2.62c0.39-0.95,0.58-1.95,0.58-2.98c0-1.03-0.2-2.03-0.58-2.98c-0.96-2.36-3.09-4.18-5.59-4.75
		c-1.41-0.32-2.89-0.25-4.23,0.2c-1.78,0.56-3.56,1.38-5.3,2.44c-0.94,0.57-1.84,1.2-2.69,1.87C5.88,33.07,3.55,25.64,5.3,18.61
		c1.6-6.42,6.4-11.49,12.54-13.23c6.88-1.95,14.38,0.39,21.25,6.55c-0.66,0.84-1.28,1.73-1.84,2.65c-1.06,1.75-1.88,3.53-2.43,5.27
		c-0.46,1.37-0.53,2.85-0.21,4.26c0.57,2.5,2.38,4.63,4.75,5.59c0.95,0.38,1.95,0.58,2.98,0.58c1.03,0,2.03-0.2,2.98-0.58
		c0.98-0.4,1.87-0.98,2.62-1.74c1.06-1.06,1.8-2.39,2.12-3.85c0.32-1.41,0.25-2.89-0.2-4.23c-0.56-1.78-1.38-3.56-2.44-5.3
		c-0.56-0.92-1.18-1.8-1.84-2.65C52.47,5.77,59.96,3.44,66.83,5.39z M42.33,69.56c-0.37-0.51-0.73-1.03-1.05-1.56
		c-0.85-1.4-1.53-2.87-1.98-4.31c-0.19-0.55-0.22-1.15-0.08-1.72c0.13-0.58,0.43-1.12,0.86-1.55c0.31-0.31,0.66-0.54,1.06-0.7
		c0.38-0.15,0.79-0.23,1.2-0.23c0.42,0,0.82,0.08,1.2,0.23c0.95,0.38,1.69,1.25,1.91,2.25c0.13,0.57,0.1,1.17-0.1,1.76
		c-0.44,1.41-1.11,2.85-1.97,4.27C43.06,68.54,42.7,69.05,42.33,69.56z M42.33,15.48c0.37,0.51,0.73,1.03,1.05,1.56
		c0.85,1.4,1.53,2.87,1.98,4.3c0.19,0.56,0.21,1.15,0.08,1.73c-0.13,0.58-0.43,1.12-0.86,1.55c-0.31,0.31-0.66,0.54-1.06,0.7
		c-0.38,0.15-0.79,0.23-1.2,0.23c-0.42,0-0.82-0.08-1.2-0.23c-0.95-0.39-1.69-1.25-1.91-2.25c-0.13-0.57-0.1-1.17,0.1-1.77
		c0.44-1.41,1.11-2.85,1.97-4.27C41.61,16.5,41.97,15.99,42.33,15.48z"/>
</g>
</svg>
